<svg width="291" height="189" viewBox="0 0 291 189" fill="none" xmlns="http://www.w3.org/2000/svg">
<path d="M156.5 185C189 185 204 169 216 158C202.5 178 191 188.5 156.5 188.5C146 188.5 114.5 185 96.5 158C122 178.5 138.5 185 156.5 185Z" fill="url(#paint0_linear_286_276)"/>
<path d="M156.766 4.5C188 4.5 204.747 22.459 217.5 34C203.153 13.0164 182.5 -7.62939e-06 156.766 -7.62939e-06C145.607 -7.62939e-06 115.63 3.17212 96.5 31.5C123.6 9.9918 137.636 4.5 156.766 4.5Z" fill="url(#paint1_linear_286_276)"/>
<path d="M87 142C91.4 148 104.846 152.857 111.18 154.524L96 124L83.5 92L60.5 31C44.5 57.1667 17.5 110.5 12.5 115C8.5 119.5 7 119 1 122.5C1.5 125.268 22.5 125.268 32.5 125.268V121.768C29.5 121.768 26.6392 118.598 26 117L54.5 59.5C63.5 84.6667 82.6 136 87 142Z" fill="url(#paint2_linear_286_276)"/>
<path d="M98.5 101.97V96.5444C98.5 96.2052 98.3271 95.8909 98.0486 95.6972C92.6191 91.9211 88.5584 84.5402 72.5 86C64.8894 86.6919 51 92 40.5 95.5C31.8808 97.4891 18.6459 101.456 12.1074 92.6467C12.0368 92.5515 11.9827 92.4387 11.9519 92.3243C9.55989 83.4432 14.1146 79.1312 18.5 76.5C22.7457 73.9526 32.0386 74.2893 40.2562 76.8979C41.2776 77.2221 42.1789 75.9232 41.3937 75.1941C38.4798 72.4886 34.5491 70.219 27 69.5C15.0545 69.6448 0.5 77.4305 0.5 89C0.5 108.95 14.9282 106.512 28.3997 105.507C28.4665 105.502 28.5323 105.491 28.5969 105.473C48.0646 99.9653 67.5174 89.502 78 90.5004C85.1099 91.1775 92.4825 97.8726 96.6007 102.642C97.2307 103.372 98.5 102.934 98.5 101.97Z" fill="url(#paint3_linear_286_276)"/>
<path d="M290.5 67.5001V40.0005L289.793 40.0002C288.93 39.9999 288.626 39.9998 287 40.0005C285 43.0005 285.5 42.5003 283 44.0003C281.5 43.0003 268 40.0005 251.5 40.5003C241.5 40.5003 208 46.5001 207.5 84.0001C207 121.5 241 130 253 130C275.5 130 279 124.601 286.5 121.768C286.881 113.268 286.5 113 286.5 101.5C283.5 108.5 280 121.5 254 121.5C240.5 121.5 222.5 104.5 222.5 86.5001C222.5 65.5 231.5 49 256.5 47.0001C279 47.0001 282.833 60.5001 283.5 67.5001H290.5Z" fill="url(#paint4_linear_286_276)"/>
<path d="M167 158C189 157.371 207.5 149 217 134.5C207 141 192.5 149.5 179 149.5C166.574 149.5 148 146 136 130.5L135.732 31.5H132.232L108 53.5C113 55.5002 117.5 51.0001 120 50.0001V137.5C131 148 142.429 158.702 167 158Z" fill="url(#paint5_linear_286_276)"/>
<path d="M175.5 99C175.5 85 162 78.8333 155 77.5L156 75C165.5 71 177.5 72.5 175.5 52.5C174.436 41.8643 163 44 159.5 44C153.9 46.4 151.453 49.1074 149.953 50.6074L145 55C142.848 55 141.5 55 142.5 52C147.5 40.5 160 35 166.5 35C171 35 190.5 32.5 191.5 50.5C192.3 64.9 180.5 72 174 73.5C180.167 75.3333 192.5 82.9 192.5 98.5C192.5 118 176.5 124 163 124C149.5 124 141 119 140.5 111C140.1 104.6 143.333 99.8333 145.5 98.5C147.5 97.2692 150 98 149.5 98.5C148.3 111.3 156.333 115.5 160.5 116C165.5 116.167 175.5 113 175.5 99Z" fill="url(#paint6_linear_286_276)"/>
<defs>
<linearGradient id="paint0_linear_286_276" x1="155.5" y1="157" x2="155.5" y2="188.526" gradientUnits="userSpaceOnUse">
<stop offset="0.441153" stop-color="#AB795E"/>
<stop offset="0.773073" stop-color="#D49D82"/>
<stop offset="1" stop-color="#FAE8C8"/>
</linearGradient>
<linearGradient id="paint1_linear_286_276" x1="155.703" y1="33.0492" x2="155.703" y2="-0.0272197" gradientUnits="userSpaceOnUse">
<stop offset="0.441153" stop-color="#AB795E"/>
<stop offset="0.773073" stop-color="#D49D82"/>
<stop offset="1" stop-color="#FAE8C8"/>
</linearGradient>
<linearGradient id="paint2_linear_286_276" x1="56.0898" y1="154.524" x2="56.0898" y2="31" gradientUnits="userSpaceOnUse">
<stop stop-color="#FAE8C8"/>
<stop offset="0.83489" stop-color="#D49D82"/>
<stop offset="1" stop-color="#AB795E"/>
</linearGradient>
<linearGradient id="paint3_linear_286_276" x1="98.5" y1="87.8329" x2="0.5" y2="87.8329" gradientUnits="userSpaceOnUse">
<stop stop-color="#FAE8C8"/>
<stop offset="0.715414" stop-color="#D49D82"/>
<stop offset="1" stop-color="#AB795E"/>
</linearGradient>
<linearGradient id="paint4_linear_286_276" x1="248.997" y1="130" x2="248.997" y2="40" gradientUnits="userSpaceOnUse">
<stop stop-color="#FAE8C8"/>
<stop offset="0.5" stop-color="#D49D82"/>
<stop offset="1" stop-color="#AB795E"/>
</linearGradient>
<linearGradient id="paint5_linear_286_276" x1="161.25" y1="158.033" x2="161.25" y2="31.5" gradientUnits="userSpaceOnUse">
<stop stop-color="#FAE8C8"/>
<stop offset="0.634547" stop-color="#D49D82"/>
<stop offset="1" stop-color="#AB795E"/>
</linearGradient>
<linearGradient id="paint6_linear_286_276" x1="166.483" y1="124" x2="166.483" y2="34.8818" gradientUnits="userSpaceOnUse">
<stop stop-color="#FAE8C8"/>
<stop offset="0.5" stop-color="#D49D82"/>
<stop offset="1" stop-color="#AB795E"/>
</linearGradient>
</defs>
</svg>
