<svg width="16" height="16" viewBox="0 0 16 16" fill="none" xmlns="http://www.w3.org/2000/svg">
  <path
    fill-rule="evenodd"
    clip-rule="evenodd"
    d="M13.8565 2.59993L3.07739 6.49743L6.66842 8.57586L9.83487 5.40856C9.99549 5.24805 10.2133 5.15792 10.4404 5.158C10.6675 5.15808 10.8852 5.24836 11.0457 5.40899C11.2062 5.56961 11.2964 5.78742 11.2963 6.0145C11.2962 6.24158 11.2059 6.45933 11.0453 6.61984L7.87799 9.78714L9.95813 13.3773L13.8565 2.59993ZM14.133 0.679006C15.1559 0.308346 16.1472 1.29963 15.7766 2.32258L11.255 14.8249C10.8835 15.8504 9.48304 15.9754 8.93604 15.0312L6.1822 10.2734L1.4244 7.51952C0.480197 6.97252 0.605178 5.57206 1.6307 5.20054L14.133 0.679006Z"
    fill="#111111"
  />
</svg>